<svg xmlns="http://www.w3.org/2000/svg" xmlns:xlink="http://www.w3.org/1999/xlink" width="479" height="1131" viewBox="0 0 479 1131">
  <defs>
    <clipPath id="clip-path">
      <rect width="353" height="146" fill="none"/>
    </clipPath>
    <clipPath id="clip-path-4">
      <rect width="353" height="31" fill="none"/>
    </clipPath>
  </defs>
  <g id="Group_1530" data-name="Group 1530" transform="translate(-1535 -6924)">
    <rect id="Rectangle_11" data-name="Rectangle 11" width="375" height="812" transform="translate(1535 6924)" fill="#ececec"/>
    <g id="Repeat_Grid_5" data-name="Repeat Grid 5" transform="translate(1558 7526)" clip-path="url(#clip-path)">
      <g id="Group_1527" data-name="Group 1527" transform="translate(-1558 -7074)">
        <rect id="Rectangle_8" data-name="Rectangle 8" width="134" height="146" rx="8" transform="translate(1558 7074)" fill="#fff"/>
        <line id="Line_4" data-name="Line 4" x2="116" transform="translate(1568.5 7194.5)" fill="none" stroke="#707070" stroke-width="5" opacity="0.5"/>
        <line id="Line_5" data-name="Line 5" x2="116" transform="translate(1568.5 7207.5)" fill="none" stroke="#707070" stroke-width="5" opacity="0.5"/>
        <g id="Group_45" data-name="Group 45" transform="translate(-6.861 -5.625)">
          <rect id="Rectangle_13" data-name="Rectangle 13" width="125" height="103" transform="translate(1568.861 7084.625)" fill="#ececec"/>
          <path id="Path_12" data-name="Path 12" d="M1585.6,7134.063l24.731-19.753,18.073,17.432,23.78-30.07,20.927,35.735h-92.267Z" transform="translate(1.884 8.803)" fill="#939393"/>
        </g>
      </g>
      <g id="Group_1527-2" data-name="Group 1527" transform="translate(-1404 -7074)">
        <rect id="Rectangle_8-2" data-name="Rectangle 8" width="134" height="146" rx="8" transform="translate(1558 7074)" fill="#fff"/>
        <line id="Line_4-2" data-name="Line 4" x2="116" transform="translate(1568.5 7194.5)" fill="none" stroke="#707070" stroke-width="5" opacity="0.5"/>
        <line id="Line_5-2" data-name="Line 5" x2="116" transform="translate(1568.5 7207.5)" fill="none" stroke="#707070" stroke-width="5" opacity="0.5"/>
        <g id="Group_45-2" data-name="Group 45" transform="translate(-6.861 -5.625)">
          <rect id="Rectangle_13-2" data-name="Rectangle 13" width="125" height="103" transform="translate(1568.861 7084.625)" fill="#ececec"/>
          <path id="Path_12-2" data-name="Path 12" d="M1585.6,7134.063l24.731-19.753,18.073,17.432,23.78-30.07,20.927,35.735h-92.267Z" transform="translate(1.884 8.803)" fill="#939393"/>
        </g>
      </g>
      <g id="Group_1527-3" data-name="Group 1527" transform="translate(-1250 -7074)">
        <rect id="Rectangle_8-3" data-name="Rectangle 8" width="134" height="146" rx="8" transform="translate(1558 7074)" fill="#fff"/>
        <line id="Line_4-3" data-name="Line 4" x2="116" transform="translate(1568.5 7194.5)" fill="none" stroke="#707070" stroke-width="5" opacity="0.5"/>
        <line id="Line_5-3" data-name="Line 5" x2="116" transform="translate(1568.5 7207.5)" fill="none" stroke="#707070" stroke-width="5" opacity="0.5"/>
        <g id="Group_45-3" data-name="Group 45" transform="translate(-6.861 -5.625)">
          <rect id="Rectangle_13-3" data-name="Rectangle 13" width="125" height="103" transform="translate(1568.861 7084.625)" fill="#ececec"/>
          <path id="Path_12-3" data-name="Path 12" d="M1585.6,7134.063l24.731-19.753,18.073,17.432,23.78-30.07,20.927,35.735h-92.267Z" transform="translate(1.884 8.803)" fill="#939393"/>
        </g>
      </g>
    </g>
    <path id="Subtraction_1" data-name="Subtraction 1" transform="translate(1876.5 7275)" fill="none" stroke="#707070" stroke-width="5" opacity="0.5"/>
    <path id="Subtraction_2" data-name="Subtraction 2" transform="translate(1876.5 7479)" fill="none" stroke="#707070" stroke-width="5" opacity="0.5"/>
    <path id="Subtraction_3" data-name="Subtraction 3" transform="translate(1876.5 7643)" fill="none" stroke="#707070" stroke-width="5" opacity="0.5"/>
    <g id="Rectangle_10" data-name="Rectangle 10" transform="translate(1535 7656)" fill="#fff" stroke="rgba(112,112,112,0.11)" stroke-width="1">
      <rect width="375" height="80" stroke="none"/>
      <rect x="0.5" y="0.5" width="374" height="79" fill="none"/>
    </g>
    <g id="Repeat_Grid_3" data-name="Repeat Grid 3" transform="translate(1558 7116)" clip-path="url(#clip-path)">
      <g id="Group_1527-4" data-name="Group 1527" transform="translate(-1558 -7074)">
        <rect id="Rectangle_8-4" data-name="Rectangle 8" width="134" height="146" rx="8" transform="translate(1558 7074)" fill="#fff"/>
        <line id="Line_4-4" data-name="Line 4" x2="116" transform="translate(1568.5 7194.5)" fill="none" stroke="#707070" stroke-width="5" opacity="0.5"/>
        <line id="Line_5-4" data-name="Line 5" x2="116" transform="translate(1568.5 7207.5)" fill="none" stroke="#707070" stroke-width="5" opacity="0.5"/>
        <g id="Group_45-4" data-name="Group 45" transform="translate(-6.861 -5.625)">
          <rect id="Rectangle_13-4" data-name="Rectangle 13" width="125" height="103" transform="translate(1568.861 7084.625)" fill="#ececec"/>
          <path id="Path_12-4" data-name="Path 12" d="M1585.6,7134.063l24.731-19.753,18.073,17.432,23.78-30.07,20.927,35.735h-92.267Z" transform="translate(1.884 8.803)" fill="#939393"/>
        </g>
      </g>
      <g id="Group_1527-5" data-name="Group 1527" transform="translate(-1404 -7074)">
        <rect id="Rectangle_8-5" data-name="Rectangle 8" width="134" height="146" rx="8" transform="translate(1558 7074)" fill="#fff"/>
        <line id="Line_4-5" data-name="Line 4" x2="116" transform="translate(1568.5 7194.5)" fill="none" stroke="#707070" stroke-width="5" opacity="0.5"/>
        <line id="Line_5-5" data-name="Line 5" x2="116" transform="translate(1568.5 7207.5)" fill="none" stroke="#707070" stroke-width="5" opacity="0.5"/>
        <g id="Group_45-5" data-name="Group 45" transform="translate(-6.861 -5.625)">
          <rect id="Rectangle_13-5" data-name="Rectangle 13" width="125" height="103" transform="translate(1568.861 7084.625)" fill="#ececec"/>
          <path id="Path_12-5" data-name="Path 12" d="M1585.6,7134.063l24.731-19.753,18.073,17.432,23.78-30.07,20.927,35.735h-92.267Z" transform="translate(1.884 8.803)" fill="#939393"/>
        </g>
      </g>
      <g id="Group_1527-6" data-name="Group 1527" transform="translate(-1250 -7074)">
        <rect id="Rectangle_8-6" data-name="Rectangle 8" width="134" height="146" rx="8" transform="translate(1558 7074)" fill="#fff"/>
        <line id="Line_4-6" data-name="Line 4" x2="116" transform="translate(1568.5 7194.5)" fill="none" stroke="#707070" stroke-width="5" opacity="0.5"/>
        <line id="Line_5-6" data-name="Line 5" x2="116" transform="translate(1568.5 7207.5)" fill="none" stroke="#707070" stroke-width="5" opacity="0.5"/>
        <g id="Group_45-6" data-name="Group 45" transform="translate(-6.861 -5.625)">
          <rect id="Rectangle_13-6" data-name="Rectangle 13" width="125" height="103" transform="translate(1568.861 7084.625)" fill="#ececec"/>
          <path id="Path_12-6" data-name="Path 12" d="M1585.6,7134.063l24.731-19.753,18.073,17.432,23.78-30.07,20.927,35.735h-92.267Z" transform="translate(1.884 8.803)" fill="#939393"/>
        </g>
      </g>
    </g>
    <g id="Repeat_Grid_4" data-name="Repeat Grid 4" transform="translate(1558 7320)" clip-path="url(#clip-path)">
      <g id="Group_1527-7" data-name="Group 1527" transform="translate(-1558 -7074)">
        <rect id="Rectangle_8-7" data-name="Rectangle 8" width="134" height="146" rx="8" transform="translate(1558 7074)" fill="#fff"/>
        <line id="Line_4-7" data-name="Line 4" x2="116" transform="translate(1568.5 7194.5)" fill="none" stroke="#707070" stroke-width="5" opacity="0.5"/>
        <line id="Line_5-7" data-name="Line 5" x2="116" transform="translate(1568.5 7207.5)" fill="none" stroke="#707070" stroke-width="5" opacity="0.5"/>
        <g id="Group_45-7" data-name="Group 45" transform="translate(-6.861 -5.625)">
          <rect id="Rectangle_13-7" data-name="Rectangle 13" width="125" height="103" transform="translate(1568.861 7084.625)" fill="#ececec"/>
          <path id="Path_12-7" data-name="Path 12" d="M1585.6,7134.063l24.731-19.753,18.073,17.432,23.78-30.07,20.927,35.735h-92.267Z" transform="translate(1.884 8.803)" fill="#939393"/>
        </g>
      </g>
      <g id="Group_1527-8" data-name="Group 1527" transform="translate(-1404 -7074)">
        <rect id="Rectangle_8-8" data-name="Rectangle 8" width="134" height="146" rx="8" transform="translate(1558 7074)" fill="#fff"/>
        <line id="Line_4-8" data-name="Line 4" x2="116" transform="translate(1568.5 7194.5)" fill="none" stroke="#707070" stroke-width="5" opacity="0.5"/>
        <line id="Line_5-8" data-name="Line 5" x2="116" transform="translate(1568.5 7207.5)" fill="none" stroke="#707070" stroke-width="5" opacity="0.5"/>
        <g id="Group_45-8" data-name="Group 45" transform="translate(-6.861 -5.625)">
          <rect id="Rectangle_13-8" data-name="Rectangle 13" width="125" height="103" transform="translate(1568.861 7084.625)" fill="#ececec"/>
          <path id="Path_12-8" data-name="Path 12" d="M1585.6,7134.063l24.731-19.753,18.073,17.432,23.78-30.07,20.927,35.735h-92.267Z" transform="translate(1.884 8.803)" fill="#939393"/>
        </g>
      </g>
      <g id="Group_1527-9" data-name="Group 1527" transform="translate(-1250 -7074)">
        <rect id="Rectangle_8-9" data-name="Rectangle 8" width="134" height="146" rx="8" transform="translate(1558 7074)" fill="#fff"/>
        <line id="Line_4-9" data-name="Line 4" x2="116" transform="translate(1568.5 7194.5)" fill="none" stroke="#707070" stroke-width="5" opacity="0.5"/>
        <line id="Line_5-9" data-name="Line 5" x2="116" transform="translate(1568.5 7207.5)" fill="none" stroke="#707070" stroke-width="5" opacity="0.5"/>
        <g id="Group_45-9" data-name="Group 45" transform="translate(-6.861 -5.625)">
          <rect id="Rectangle_13-9" data-name="Rectangle 13" width="125" height="103" transform="translate(1568.861 7084.625)" fill="#ececec"/>
          <path id="Path_12-9" data-name="Path 12" d="M1585.6,7134.063l24.731-19.753,18.073,17.432,23.78-30.07,20.927,35.735h-92.267Z" transform="translate(1.884 8.803)" fill="#939393"/>
        </g>
      </g>
    </g>
    <g id="Rectangle_14" data-name="Rectangle 14" transform="translate(1860 6977)" fill="#fff" stroke="#707070" stroke-width="1">
      <rect width="35" height="35" stroke="none"/>
      <rect x="0.5" y="0.5" width="34" height="34" fill="none"/>
    </g>
    <g id="Rectangle_15" data-name="Rectangle 15" transform="translate(1558 6977)" fill="#fff" stroke="#707070" stroke-width="1">
      <rect width="35" height="35" stroke="none"/>
      <rect x="0.5" y="0.5" width="34" height="34" fill="none"/>
    </g>
    <text id="Home" transform="translate(1549 7716)" fill="#939393" font-size="14" font-family="SFProText-Regular, SF Pro Text"><tspan x="0" y="0">Home</tspan></text>
    <path id="home_5_" data-name="home (5)" d="M20.363,9.1h0L11.825.564A1.926,1.926,0,0,0,9.1.564L.568,9.1.559,9.1a1.926,1.926,0,0,0,1.282,3.282l.059,0h.34v6.282A2.257,2.257,0,0,0,4.5,20.927h3.34a.613.613,0,0,0,.613-.613V15.388A1.03,1.03,0,0,1,9.478,14.36h1.97a1.03,1.03,0,0,1,1.029,1.029v4.925a.613.613,0,0,0,.613.613h3.34a2.257,2.257,0,0,0,2.255-2.255V12.39H19A1.927,1.927,0,0,0,20.363,9.1Zm0,0" transform="translate(1557.542 7679.542)" fill="#939393"/>
    <text id="Your_Favorites" data-name="Your Favorites" transform="translate(1558 7099)" fill="#ccc" font-size="16" font-family="Poppins-Regular, Poppins"><tspan x="0" y="0">Your Favorites</tspan></text>
    <text id="Deliver_to:" data-name="Deliver to:" transform="translate(1687 6993)" fill="#939393" font-size="16" font-family="Poppins-Regular, Poppins"><tspan x="0" y="0">Deliver to:</tspan></text>
    <text id="Location" transform="translate(1690 7016)" fill="#939393" font-size="16" font-family="Poppins-Regular, Poppins"><tspan x="0" y="0">Location</tspan></text>
    <g id="Group_1528" data-name="Group 1528" transform="translate(0 42)">
      <g id="Repeat_Grid_2" data-name="Repeat Grid 2" transform="translate(1558 6993)" clip-path="url(#clip-path-4)">
        <g transform="translate(-1028 -6987)">
          <rect id="Rectangle_9" data-name="Rectangle 9" width="99" height="31" rx="15.5" transform="translate(1028 6987)" fill="#fff"/>
        </g>
        <g transform="translate(-909 -6987)">
          <rect id="Rectangle_9-2" data-name="Rectangle 9" width="99" height="31" rx="15.5" transform="translate(1028 6987)" fill="#fff"/>
        </g>
        <g transform="translate(-790 -6987)">
          <rect id="Rectangle_9-3" data-name="Rectangle 9" width="99" height="31" rx="15.5" transform="translate(1028 6987)" fill="#fff"/>
        </g>
      </g>
      <text id="All" transform="translate(1593 7014)" fill="#939393" font-size="16" font-family="Poppins-Regular, Poppins"><tspan x="0" y="0">All</tspan></text>
      <text id="Drinks" transform="translate(1702 7014)" fill="#939393" font-size="16" font-family="Poppins-Regular, Poppins"><tspan x="0" y="0">Drinks</tspan></text>
      <text id="Snacks" transform="translate(1820 7014)" fill="#939393" font-size="16" font-family="Poppins-Regular, Poppins"><tspan x="0" y="0">Snacks</tspan></text>
    </g>
    <text id="Today_s_Special" data-name="Today&apos;s Special" transform="translate(1558 7303)" fill="#ccc" font-size="16" font-family="Poppins-Regular, Poppins"><tspan x="0" y="0">Today&apos;s Special</tspan></text>
    <text id="Popular" transform="translate(1558 7509)" fill="#ccc" font-size="16" font-family="Poppins-Regular, Poppins"><tspan x="0" y="0">Popular</tspan></text>
    <g id="Group_1529" data-name="Group 1529">
      <g id="orders" transform="translate(1534 7056)">
        <text id="Orders-2" data-name="Orders" transform="translate(238 660)" fill="#939393" font-size="14" font-family="SFProText-Regular, SF Pro Text" opacity="0.5"><tspan x="0" y="0">Orders</tspan></text>
        <g id="room-service" transform="translate(250 623.88)" opacity="0.5">
          <g id="Group_150" data-name="Group 150" transform="translate(4.324 1.73)">
            <g id="Group_149" data-name="Group 149">
              <path id="Path_313" data-name="Path 313" d="M114.45,43.078a7.793,7.793,0,0,0-7.783,7.783h15.567A7.792,7.792,0,0,0,114.45,43.078Zm0,2.594a5.172,5.172,0,0,0-5.05,3.991.432.432,0,0,1-.42.333.4.4,0,0,1-.1-.012.433.433,0,0,1-.321-.52,6.033,6.033,0,0,1,5.891-4.657.432.432,0,1,1,0,.865Z" transform="translate(-106.667 -43.078)" fill="#939393"/>
            </g>
          </g>
          <g id="Group_152" data-name="Group 152" transform="translate(10.81 0.432)">
            <g id="Group_151" data-name="Group 151" transform="translate(0)">
              <path id="Path_314" data-name="Path 314" d="M267.964,11.078a1.3,1.3,0,0,0-1.3,1.3v.432h2.594v-.432A1.3,1.3,0,0,0,267.964,11.078Z" transform="translate(-266.667 -11.078)" fill="#939393"/>
            </g>
          </g>
          <g id="Group_154" data-name="Group 154" transform="translate(10.378 0)">
            <g id="Group_153" data-name="Group 153">
              <path id="Path_315" data-name="Path 315" d="M257.73.411A1.731,1.731,0,0,0,256,2.141v.432a.432.432,0,0,0,.865,0V2.141a.865.865,0,1,1,1.73,0v.432a.432.432,0,1,0,.865,0V2.141A1.731,1.731,0,0,0,257.73.411Z" transform="translate(-256 -0.411)" fill="#939393"/>
            </g>
          </g>
          <g id="Group_156" data-name="Group 156" transform="translate(0 9.513)">
            <g id="Group_155" data-name="Group 155" transform="translate(0)">
              <path id="Path_316" data-name="Path 316" d="M5.054,236.059c-.741-.7-3.7-.93-4.6-.982a.464.464,0,0,0-.323.117.432.432,0,0,0-.136.315v8.649a.433.433,0,0,0,.432.432H3.027a.432.432,0,0,0,.411-.3,66.5,66.5,0,0,0,1.75-7.881A.431.431,0,0,0,5.054,236.059Z" transform="translate(0 -235.077)" fill="#939393"/>
            </g>
          </g>
          <g id="Group_158" data-name="Group 158" transform="translate(5.978 10.378)">
            <g id="Group_157" data-name="Group 157">
              <path id="Path_317" data-name="Path 317" d="M147.456,256.411a1.291,1.291,0,0,1,.071.544c0,.051-.013.112-.019.167.571.035,1.135.088,1.589.13l.243.023a9.485,9.485,0,0,1,2.081.521,5.652,5.652,0,0,0,1.3.341c.006,0,.086,0,.213.005h6.274a.436.436,0,0,0,.306-.126l1.6-1.6Z" transform="translate(-147.456 -256.411)" fill="#939393"/>
            </g>
          </g>
          <g id="Group_160" data-name="Group 160" transform="translate(5.978 10.378)">
            <g id="Group_159" data-name="Group 159">
              <path id="Path_318" data-name="Path 318" d="M161.8,256.411H147.456a1.291,1.291,0,0,1,.071.544c0,.051-.013.112-.019.167.571.035,1.135.088,1.589.13l.243.023.011,0H161.8a.432.432,0,1,0,0-.865Z" transform="translate(-147.456 -256.411)" fill="#939393"/>
            </g>
          </g>
          <g id="Group_162" data-name="Group 162" transform="translate(4.495 11.951)">
            <g id="Group_161" data-name="Group 161">
              <path id="Path_319" data-name="Path 319" d="M124.557,298.406,121.53,299.7c-.838.041-2.581-.014-3.027-.008s-2.685-.714-2.333-.857a1.749,1.749,0,0,1,.6-.008c1.975.164,5.189.562,5.189-.865s-3.483-1.73-4.324-1.73-2.252-.755-3.459-.865c-.48-.043-1.139-.109-1.808-.15a46.04,46.04,0,0,1-1.48,5.872l4.585,2.074c1.716.649,2.882,1.477,6.486,0,0,0,5.189-2.2,5.189-3.459C127.151,298.663,125.962,297.919,124.557,298.406Z" transform="translate(-110.891 -295.216)" fill="#939393"/>
            </g>
          </g>
        </g>
      </g>
      <g id="Rectangle_1632" data-name="Rectangle 1632" transform="translate(1540 7670)" fill="#fff" stroke="#707070" stroke-width="1" opacity="0">
        <rect width="63" height="52" stroke="none"/>
        <rect x="0.5" y="0.5" width="62" height="51" fill="none"/>
      </g>
      <g id="search" transform="translate(1534 7056)">
        <text id="Search-2" data-name="Search" transform="translate(88 660)" fill="#939393" font-size="14" font-family="SFProText-Regular, SF Pro Text" opacity="0.5"><tspan x="0" y="0">Search</tspan></text>
        <g id="magnifier" transform="translate(101 624.218)" opacity="0.5">
          <g id="Group_1526" data-name="Group 1526" transform="translate(0 0)">
            <path id="Path_1095" data-name="Path 1095" d="M2.393,13.964A8.183,8.183,0,0,1,13.965,2.393,8.024,8.024,0,0,1,15.2,12.268a.344.344,0,0,0,.047.41l4.175,4.175a1.907,1.907,0,0,1,.292,2.73l-.127.127a1.906,1.906,0,0,1-2.73-.292l-4.166-4.166a.349.349,0,0,0-.419-.056A8.024,8.024,0,0,1,2.393,13.964Zm10.061-1.511a6.046,6.046,0,1,0-8.55,0A6.053,6.053,0,0,0,12.455,12.454Z" transform="translate(-0.001 0)" fill="#939393"/>
            <g id="Group_1525" data-name="Group 1525" transform="translate(5.225 3.275)">
              <path id="Path_1096" data-name="Path 1096" d="M120.458,54.827a.845.845,0,0,0,.777-1.174,5.322,5.322,0,0,0-6.968-2.824.845.845,0,1,0,.658,1.555,3.632,3.632,0,0,1,4.754,1.927A.845.845,0,0,0,120.458,54.827Z" transform="translate(-113.752 -50.409)" fill="#939393"/>
            </g>
          </g>
        </g>
      </g>
      <g id="menu" transform="translate(1534 7056)">
        <text id="Menu-2" data-name="Menu" transform="translate(168 660)" fill="#939393" font-size="14" font-family="SFProText-Regular, SF Pro Text" opacity="0.5"><tspan x="0" y="0">Menu</tspan></text>
        <g id="menu_2_" data-name="menu (2)" transform="translate(176 624.218)" opacity="0.5">
          <path id="Path_1100" data-name="Path 1100" d="M6.836,9.43H2.593A2.6,2.6,0,0,1,0,6.836V2.593A2.6,2.6,0,0,1,2.593,0H6.836A2.6,2.6,0,0,1,9.43,2.593V6.836A2.6,2.6,0,0,1,6.836,9.43ZM2.593,1.257A1.337,1.337,0,0,0,1.257,2.593V6.836A1.337,1.337,0,0,0,2.593,8.172H6.836A1.337,1.337,0,0,0,8.172,6.836V2.593A1.337,1.337,0,0,0,6.836,1.257Z" fill="#939393"/>
          <path id="Path_1101" data-name="Path 1101" d="M278.836,9.43h-4.243A2.6,2.6,0,0,1,272,6.836V2.593A2.6,2.6,0,0,1,274.593,0h4.243a2.6,2.6,0,0,1,2.593,2.593V6.836A2.6,2.6,0,0,1,278.836,9.43Zm-4.243-8.172a1.337,1.337,0,0,0-1.336,1.336V6.836a1.337,1.337,0,0,0,1.336,1.336h4.243a1.337,1.337,0,0,0,1.336-1.336V2.593a1.337,1.337,0,0,0-1.336-1.336Z" transform="translate(-261.313)" fill="#939393"/>
          <path id="Path_1102" data-name="Path 1102" d="M276.715,281.43a4.715,4.715,0,1,1,4.715-4.715A4.72,4.72,0,0,1,276.715,281.43Zm0-8.172a3.458,3.458,0,1,0,3.458,3.458A3.461,3.461,0,0,0,276.715,273.257Z" transform="translate(-261.313 -261.313)" fill="#939393"/>
          <path id="Path_1103" data-name="Path 1103" d="M6.836,281.43H2.593A2.6,2.6,0,0,1,0,278.836v-4.243A2.6,2.6,0,0,1,2.593,272H6.836a2.6,2.6,0,0,1,2.593,2.593v4.243A2.6,2.6,0,0,1,6.836,281.43Zm-4.243-8.172a1.337,1.337,0,0,0-1.336,1.336v4.243a1.337,1.337,0,0,0,1.336,1.336H6.836a1.337,1.337,0,0,0,1.336-1.336v-4.243a1.337,1.337,0,0,0-1.336-1.336Z" transform="translate(0 -261.313)" fill="#939393"/>
        </g>
      </g>
      <g id="account" transform="translate(1534 7054)">
        <text id="Account-2" data-name="Account" transform="translate(317 662)" fill="#939393" font-size="14" font-family="SFProText-Regular, SF Pro Text" opacity="0.5"><tspan x="0" y="0">Account</tspan></text>
        <g id="user_4_" data-name="user (4)" transform="translate(334 623.161)" opacity="0.5">
          <path id="Path_1104" data-name="Path 1104" d="M92.726,11.389A5.51,5.51,0,0,0,96.752,9.72a5.51,5.51,0,0,0,1.668-4.026,5.511,5.511,0,0,0-1.668-4.026,5.693,5.693,0,0,0-8.052,0,5.51,5.51,0,0,0-1.668,4.026A5.51,5.51,0,0,0,88.7,9.721,5.511,5.511,0,0,0,92.726,11.389Zm0,0" transform="translate(-83.013 0)" fill="#939393"/>
          <path id="Path_1105" data-name="Path 1105" d="M19.677,254.076a14.063,14.063,0,0,0-.192-1.494,11.77,11.77,0,0,0-.367-1.5,7.418,7.418,0,0,0-.617-1.4,5.287,5.287,0,0,0-.931-1.213,4.105,4.105,0,0,0-1.337-.84,4.622,4.622,0,0,0-1.707-.309,1.733,1.733,0,0,0-.926.393c-.277.181-.6.39-.964.622a5.523,5.523,0,0,1-1.247.55,4.844,4.844,0,0,1-3.052,0,5.513,5.513,0,0,1-1.247-.549c-.359-.229-.683-.439-.965-.622a1.73,1.73,0,0,0-.925-.392,4.617,4.617,0,0,0-1.707.309,4.1,4.1,0,0,0-1.338.84,5.287,5.287,0,0,0-.931,1.213,7.432,7.432,0,0,0-.617,1.4,11.8,11.8,0,0,0-.367,1.5,14.014,14.014,0,0,0-.192,1.494c-.031.452-.047.922-.047,1.4a3.926,3.926,0,0,0,1.166,2.97,4.2,4.2,0,0,0,3,1.1H15.554a4.2,4.2,0,0,0,3-1.1,3.924,3.924,0,0,0,1.166-2.97c0-.476-.016-.946-.048-1.4Zm0,0" transform="translate(0 -235.896)" fill="#939393"/>
        </g>
      </g>
    </g>
  </g>
</svg>
