<svg xmlns="http://www.w3.org/2000/svg" xmlns:xlink="http://www.w3.org/1999/xlink" width="479" height="1131" viewBox="0 0 479 1131">
  <defs>
    <clipPath id="clip-path">
      <rect width="361" height="68" fill="none"/>
    </clipPath>
  </defs>
  <g id="Group_15356" data-name="Group 15356" transform="translate(-2159 -6924)">
    <path id="Subtraction_1" data-name="Subtraction 1" transform="translate(2500.5 7289)" fill="none" stroke="#707070" stroke-width="5" opacity="0.5"/>
    <path id="Subtraction_3" data-name="Subtraction 3" transform="translate(2500.5 7643)" fill="none" stroke="#707070" stroke-width="5" opacity="0.5"/>
    <g id="Rectangle_10" data-name="Rectangle 10" transform="translate(2159 7656)" fill="#fff" stroke="rgba(112,112,112,0.11)" stroke-width="1">
      <rect width="375" height="80" stroke="none"/>
      <rect x="0.5" y="0.5" width="374" height="79" fill="none"/>
    </g>
    <text id="Home" transform="translate(2173 7716)" fill="#ccc" font-size="14" font-family="SFProText-Regular, SF Pro Text"><tspan x="0" y="0">Home</tspan></text>
    <path id="home_5_" data-name="home (5)" d="M20.363,9.1h0L11.825.564A1.926,1.926,0,0,0,9.1.564L.568,9.1.559,9.1a1.926,1.926,0,0,0,1.282,3.282l.059,0h.34v6.282A2.257,2.257,0,0,0,4.5,20.927h3.34a.613.613,0,0,0,.613-.613V15.388A1.03,1.03,0,0,1,9.478,14.36h1.97a1.03,1.03,0,0,1,1.029,1.029v4.925a.613.613,0,0,0,.613.613h3.34a2.257,2.257,0,0,0,2.255-2.255V12.39H19A1.927,1.927,0,0,0,20.363,9.1Zm0,0" transform="translate(2181.542 7679.542)" fill="#ccc"/>
    <g id="Group_1529" data-name="Group 1529" transform="translate(624)">
      <g id="orders" transform="translate(1534 7056)">
        <text id="Orders-2" data-name="Orders" transform="translate(238 660)" fill="#939393" font-size="14" font-family="SFProText-Regular, SF Pro Text" opacity="0.5"><tspan x="0" y="0">Orders</tspan></text>
        <g id="room-service" transform="translate(250 623.88)" opacity="0.5">
          <g id="Group_150" data-name="Group 150" transform="translate(4.324 1.73)">
            <g id="Group_149" data-name="Group 149">
              <path id="Path_313" data-name="Path 313" d="M114.45,43.078a7.793,7.793,0,0,0-7.783,7.783h15.567A7.792,7.792,0,0,0,114.45,43.078Zm0,2.594a5.172,5.172,0,0,0-5.05,3.991.432.432,0,0,1-.42.333.4.4,0,0,1-.1-.012.433.433,0,0,1-.321-.52,6.033,6.033,0,0,1,5.891-4.657.432.432,0,1,1,0,.865Z" transform="translate(-106.667 -43.078)" fill="#939393"/>
            </g>
          </g>
          <g id="Group_152" data-name="Group 152" transform="translate(10.81 0.432)">
            <g id="Group_151" data-name="Group 151" transform="translate(0)">
              <path id="Path_314" data-name="Path 314" d="M267.964,11.078a1.3,1.3,0,0,0-1.3,1.3v.432h2.594v-.432A1.3,1.3,0,0,0,267.964,11.078Z" transform="translate(-266.667 -11.078)" fill="#939393"/>
            </g>
          </g>
          <g id="Group_154" data-name="Group 154" transform="translate(10.378 0)">
            <g id="Group_153" data-name="Group 153">
              <path id="Path_315" data-name="Path 315" d="M257.73.411A1.731,1.731,0,0,0,256,2.141v.432a.432.432,0,0,0,.865,0V2.141a.865.865,0,1,1,1.73,0v.432a.432.432,0,1,0,.865,0V2.141A1.731,1.731,0,0,0,257.73.411Z" transform="translate(-256 -0.411)" fill="#939393"/>
            </g>
          </g>
          <g id="Group_156" data-name="Group 156" transform="translate(0 9.513)">
            <g id="Group_155" data-name="Group 155" transform="translate(0)">
              <path id="Path_316" data-name="Path 316" d="M5.054,236.059c-.741-.7-3.7-.93-4.6-.982a.464.464,0,0,0-.323.117.432.432,0,0,0-.136.315v8.649a.433.433,0,0,0,.432.432H3.027a.432.432,0,0,0,.411-.3,66.5,66.5,0,0,0,1.75-7.881A.431.431,0,0,0,5.054,236.059Z" transform="translate(0 -235.077)" fill="#939393"/>
            </g>
          </g>
          <g id="Group_158" data-name="Group 158" transform="translate(5.978 10.378)">
            <g id="Group_157" data-name="Group 157">
              <path id="Path_317" data-name="Path 317" d="M147.456,256.411a1.291,1.291,0,0,1,.071.544c0,.051-.013.112-.019.167.571.035,1.135.088,1.589.13l.243.023a9.485,9.485,0,0,1,2.081.521,5.652,5.652,0,0,0,1.3.341c.006,0,.086,0,.213.005h6.274a.436.436,0,0,0,.306-.126l1.6-1.6Z" transform="translate(-147.456 -256.411)" fill="#939393"/>
            </g>
          </g>
          <g id="Group_160" data-name="Group 160" transform="translate(5.978 10.378)">
            <g id="Group_159" data-name="Group 159">
              <path id="Path_318" data-name="Path 318" d="M161.8,256.411H147.456a1.291,1.291,0,0,1,.071.544c0,.051-.013.112-.019.167.571.035,1.135.088,1.589.13l.243.023.011,0H161.8a.432.432,0,1,0,0-.865Z" transform="translate(-147.456 -256.411)" fill="#939393"/>
            </g>
          </g>
          <g id="Group_162" data-name="Group 162" transform="translate(4.495 11.951)">
            <g id="Group_161" data-name="Group 161">
              <path id="Path_319" data-name="Path 319" d="M124.557,298.406,121.53,299.7c-.838.041-2.581-.014-3.027-.008s-2.685-.714-2.333-.857a1.749,1.749,0,0,1,.6-.008c1.975.164,5.189.562,5.189-.865s-3.483-1.73-4.324-1.73-2.252-.755-3.459-.865c-.48-.043-1.139-.109-1.808-.15a46.04,46.04,0,0,1-1.48,5.872l4.585,2.074c1.716.649,2.882,1.477,6.486,0,0,0,5.189-2.2,5.189-3.459C127.151,298.663,125.962,297.919,124.557,298.406Z" transform="translate(-110.891 -295.216)" fill="#939393"/>
            </g>
          </g>
        </g>
      </g>
      <g id="Rectangle_1632" data-name="Rectangle 1632" transform="translate(1540 7670)" fill="#fff" stroke="#707070" stroke-width="1" opacity="0">
        <rect width="63" height="52" stroke="none"/>
        <rect x="0.5" y="0.5" width="62" height="51" fill="none"/>
      </g>
      <g id="search" transform="translate(1534 7056)">
        <text id="Search-2" data-name="Search" transform="translate(88 660)" fill="#939393" font-size="14" font-family="SFProText-Regular, SF Pro Text" opacity="0.5"><tspan x="0" y="0">Search</tspan></text>
        <g id="magnifier" transform="translate(101 624.218)" opacity="0.5">
          <g id="Group_1526" data-name="Group 1526" transform="translate(0 0)">
            <path id="Path_1095" data-name="Path 1095" d="M2.393,13.964A8.183,8.183,0,0,1,13.965,2.393,8.024,8.024,0,0,1,15.2,12.268a.344.344,0,0,0,.047.41l4.175,4.175a1.907,1.907,0,0,1,.292,2.73l-.127.127a1.906,1.906,0,0,1-2.73-.292l-4.166-4.166a.349.349,0,0,0-.419-.056A8.024,8.024,0,0,1,2.393,13.964Zm10.061-1.511a6.046,6.046,0,1,0-8.55,0A6.053,6.053,0,0,0,12.455,12.454Z" transform="translate(-0.001 0)" fill="#939393"/>
            <g id="Group_1525" data-name="Group 1525" transform="translate(5.225 3.275)">
              <path id="Path_1096" data-name="Path 1096" d="M120.458,54.827a.845.845,0,0,0,.777-1.174,5.322,5.322,0,0,0-6.968-2.824.845.845,0,1,0,.658,1.555,3.632,3.632,0,0,1,4.754,1.927A.845.845,0,0,0,120.458,54.827Z" transform="translate(-113.752 -50.409)" fill="#939393"/>
            </g>
          </g>
        </g>
      </g>
      <g id="menu" transform="translate(1534 7056)">
        <text id="Menu-2" data-name="Menu" transform="translate(168 660)" fill="#939393" font-size="14" font-family="SFProText-Regular, SF Pro Text" opacity="0.5"><tspan x="0" y="0">Menu</tspan></text>
        <g id="menu_2_" data-name="menu (2)" transform="translate(176 624.218)" opacity="0.5">
          <path id="Path_1100" data-name="Path 1100" d="M6.836,9.43H2.593A2.6,2.6,0,0,1,0,6.836V2.593A2.6,2.6,0,0,1,2.593,0H6.836A2.6,2.6,0,0,1,9.43,2.593V6.836A2.6,2.6,0,0,1,6.836,9.43ZM2.593,1.257A1.337,1.337,0,0,0,1.257,2.593V6.836A1.337,1.337,0,0,0,2.593,8.172H6.836A1.337,1.337,0,0,0,8.172,6.836V2.593A1.337,1.337,0,0,0,6.836,1.257Z" fill="#939393"/>
          <path id="Path_1101" data-name="Path 1101" d="M278.836,9.43h-4.243A2.6,2.6,0,0,1,272,6.836V2.593A2.6,2.6,0,0,1,274.593,0h4.243a2.6,2.6,0,0,1,2.593,2.593V6.836A2.6,2.6,0,0,1,278.836,9.43Zm-4.243-8.172a1.337,1.337,0,0,0-1.336,1.336V6.836a1.337,1.337,0,0,0,1.336,1.336h4.243a1.337,1.337,0,0,0,1.336-1.336V2.593a1.337,1.337,0,0,0-1.336-1.336Z" transform="translate(-261.313)" fill="#939393"/>
          <path id="Path_1102" data-name="Path 1102" d="M276.715,281.43a4.715,4.715,0,1,1,4.715-4.715A4.72,4.72,0,0,1,276.715,281.43Zm0-8.172a3.458,3.458,0,1,0,3.458,3.458A3.461,3.461,0,0,0,276.715,273.257Z" transform="translate(-261.313 -261.313)" fill="#939393"/>
          <path id="Path_1103" data-name="Path 1103" d="M6.836,281.43H2.593A2.6,2.6,0,0,1,0,278.836v-4.243A2.6,2.6,0,0,1,2.593,272H6.836a2.6,2.6,0,0,1,2.593,2.593v4.243A2.6,2.6,0,0,1,6.836,281.43Zm-4.243-8.172a1.337,1.337,0,0,0-1.336,1.336v4.243a1.337,1.337,0,0,0,1.336,1.336H6.836a1.337,1.337,0,0,0,1.336-1.336v-4.243a1.337,1.337,0,0,0-1.336-1.336Z" transform="translate(0 -261.313)" fill="#939393"/>
        </g>
      </g>
      <g id="account" transform="translate(1534 7054)">
        <text id="Account-2" data-name="Account" transform="translate(317 662)" fill="#939393" font-size="14" font-family="SFProText-Regular, SF Pro Text" opacity="0.5"><tspan x="0" y="0">Account</tspan></text>
        <g id="user_4_" data-name="user (4)" transform="translate(334 623.161)" opacity="0.5">
          <path id="Path_1104" data-name="Path 1104" d="M92.726,11.389A5.51,5.51,0,0,0,96.752,9.72a5.51,5.51,0,0,0,1.668-4.026,5.511,5.511,0,0,0-1.668-4.026,5.693,5.693,0,0,0-8.052,0,5.51,5.51,0,0,0-1.668,4.026A5.51,5.51,0,0,0,88.7,9.721,5.511,5.511,0,0,0,92.726,11.389Zm0,0" transform="translate(-83.013 0)" fill="#939393"/>
          <path id="Path_1105" data-name="Path 1105" d="M19.677,254.076a14.063,14.063,0,0,0-.192-1.494,11.77,11.77,0,0,0-.367-1.5,7.418,7.418,0,0,0-.617-1.4,5.287,5.287,0,0,0-.931-1.213,4.105,4.105,0,0,0-1.337-.84,4.622,4.622,0,0,0-1.707-.309,1.733,1.733,0,0,0-.926.393c-.277.181-.6.39-.964.622a5.523,5.523,0,0,1-1.247.55,4.844,4.844,0,0,1-3.052,0,5.513,5.513,0,0,1-1.247-.549c-.359-.229-.683-.439-.965-.622a1.73,1.73,0,0,0-.925-.392,4.617,4.617,0,0,0-1.707.309,4.1,4.1,0,0,0-1.338.84,5.287,5.287,0,0,0-.931,1.213,7.432,7.432,0,0,0-.617,1.4,11.8,11.8,0,0,0-.367,1.5,14.014,14.014,0,0,0-.192,1.494c-.031.452-.047.922-.047,1.4a3.926,3.926,0,0,0,1.166,2.97,4.2,4.2,0,0,0,3,1.1H15.554a4.2,4.2,0,0,0,3-1.1,3.924,3.924,0,0,0,1.166-2.97c0-.476-.016-.946-.048-1.4Zm0,0" transform="translate(0 -235.896)" fill="#939393"/>
        </g>
      </g>
    </g>
    <g id="Group_1531" data-name="Group 1531">
      <g id="Rectangle_1640" data-name="Rectangle 1640" transform="translate(2159 6924)" fill="#ececec" stroke="rgba(112,112,112,0.16)" stroke-width="1">
        <rect width="375" height="335" stroke="none"/>
        <rect x="0.5" y="0.5" width="374" height="334" fill="none"/>
      </g>
      <path id="Path_1106" data-name="Path 1106" d="M1595.743,7203.152l77.481-61.885,56.62,54.611,74.5-94.207,65.561,111.955H1580.843Z" transform="translate(617.624 -62.716)" fill="#acacac" stroke="rgba(112,112,112,0.16)" stroke-width="1"/>
    </g>
    <g id="Group_1532" data-name="Group 1532">
      <g id="Rectangle_14" data-name="Rectangle 14" transform="translate(2435 6977)" fill="#fff" stroke="#707070" stroke-width="1">
        <rect width="35" height="35" stroke="none"/>
        <rect x="0.5" y="0.5" width="34" height="34" fill="none"/>
      </g>
      <g id="Rectangle_1639" data-name="Rectangle 1639" transform="translate(2488 6977)" fill="#fff" stroke="#707070" stroke-width="1">
        <rect width="35" height="35" stroke="none"/>
        <rect x="0.5" y="0.5" width="34" height="34" fill="none"/>
      </g>
      <g id="Rectangle_15" data-name="Rectangle 15" transform="translate(2182 6977)" fill="#fff" stroke="#707070" stroke-width="1">
        <rect width="35" height="35" stroke="none"/>
        <rect x="0.5" y="0.5" width="34" height="34" fill="none"/>
      </g>
    </g>
    <g id="Group_1533" data-name="Group 1533">
      <text id="Peppersoup" transform="translate(2186 7182)" fill="#8f8c8c" font-size="24" font-family="Poppins-Regular, Poppins"><tspan x="0" y="0">Peppersoup</tspan></text>
      <text id="_7.80" data-name="$7.80" transform="translate(2186 7236)" fill="#8f8c8c" font-size="16" font-family="Poppins-Regular, Poppins"><tspan x="0" y="0">$7.80</tspan></text>
      <text id="_4.7" data-name="4.7" transform="translate(2186 7210)" fill="#8f8c8c" font-size="16" font-family="Poppins-Regular, Poppins"><tspan x="0" y="0">4.7</tspan></text>
    </g>
    <g id="Group_1534" data-name="Group 1534" transform="translate(0 14)">
      <g id="Rectangle_1641" data-name="Rectangle 1641" transform="translate(2159 7245)" fill="#fff" stroke="rgba(112,112,112,0.11)" stroke-width="1">
        <rect width="375" height="47" stroke="none"/>
        <rect x="0.5" y="0.5" width="374" height="46" fill="none"/>
      </g>
      <text id="About" transform="translate(2173 7274)" fill="#939393" font-size="16" font-family="Poppins-Regular, Poppins"><tspan x="0" y="0">About</tspan></text>
      <text id="Reviews" transform="translate(2259 7274)" fill="#939393" font-size="16" font-family="Poppins-Regular, Poppins"><tspan x="0" y="0">Reviews</tspan></text>
      <text id="Combos" transform="translate(2360 7274)" fill="#939393" font-size="16" font-family="Poppins-Regular, Poppins"><tspan x="0" y="0">Combos</tspan></text>
      <text id="Similar" transform="translate(2466 7274)" fill="#939393" font-size="16" font-family="Poppins-Regular, Poppins"><tspan x="0" y="0">Similar</tspan></text>
    </g>
    <g id="Repeat_Grid_6" data-name="Repeat Grid 6" transform="translate(2170 7326)" clip-path="url(#clip-path)">
      <g transform="translate(-2173 -7305)">
        <g id="Rectangle_1642" data-name="Rectangle 1642" transform="translate(2173 7305)" fill="#fff" stroke="#707070" stroke-width="1">
          <rect width="67" height="68" stroke="none"/>
          <rect x="0.5" y="0.5" width="66" height="67" fill="none"/>
        </g>
      </g>
      <g transform="translate(-2086 -7305)">
        <g id="Rectangle_1642-2" data-name="Rectangle 1642" transform="translate(2173 7305)" fill="#fff" stroke="#707070" stroke-width="1">
          <rect width="67" height="68" stroke="none"/>
          <rect x="0.5" y="0.5" width="66" height="67" fill="none"/>
        </g>
      </g>
      <g transform="translate(-1999 -7305)">
        <g id="Rectangle_1642-3" data-name="Rectangle 1642" transform="translate(2173 7305)" fill="#fff" stroke="#707070" stroke-width="1">
          <rect width="67" height="68" stroke="none"/>
          <rect x="0.5" y="0.5" width="66" height="67" fill="none"/>
        </g>
      </g>
      <g transform="translate(-1912 -7305)">
        <g id="Rectangle_1642-4" data-name="Rectangle 1642" transform="translate(2173 7305)" fill="#fff" stroke="#707070" stroke-width="1">
          <rect width="67" height="68" stroke="none"/>
          <rect x="0.5" y="0.5" width="66" height="67" fill="none"/>
        </g>
      </g>
      <g transform="translate(-1825 -7305)">
        <g id="Rectangle_1642-5" data-name="Rectangle 1642" transform="translate(2173 7305)" fill="#fff" stroke="#707070" stroke-width="1">
          <rect width="67" height="68" stroke="none"/>
          <rect x="0.5" y="0.5" width="66" height="67" fill="none"/>
        </g>
      </g>
    </g>
    <text id="Sed_velit_lectus_porttitor_eu_convallis_sit_amet_semper_eget_mauris._Integer_in_pulvinar_mauris._Donec_facilisis_placerat_magna_sed_cursus._Mauris_vel_tristique_arcu._Duis_congue_orci_id_libero_dictum_sollicitudin._Curabitur_dapibus_arcu_leo_condimentum" data-name="Sed velit lectus, porttitor eu convallis sit amet, semper eget mauris. Integer in pulvinar mauris. Donec facilisis placerat magna sed cursus. Mauris vel tristique arcu. Duis congue orci id libero dictum sollicitudin. Curabitur dapibus arcu leo, condimentum" transform="translate(2173 7417)" fill="#919191" font-size="16" font-family="Poppins-Regular, Poppins"><tspan x="21.72" y="17">Sed velit lectus, porttitor eu convallis sit </tspan><tspan x="30.272" y="41">amet, semper eget mauris. Integer in </tspan><tspan x="18.68" y="65">pulvinar mauris. Donec facilisis placerat </tspan><tspan x="2.528" y="89">magna sed cursus. Mauris vel tristique arcu. </tspan><tspan x="0.232" y="113">Duis congue orci id libero dictum sollicitudin. </tspan><tspan x="9.416" y="137">Curabitur dapibus arcu leo, condimentum </tspan><tspan x="5.832" y="161">tempus augue condimentum sed. Aliquam </tspan><tspan x="16.072" y="185">sed auctor ex. Nunc quis neque non eros </tspan></text>
  </g>
</svg>
